<svg width="29" height="27" viewBox="0 0 29 27" fill="none" xmlns="http://www.w3.org/2000/svg">
<path d="M3.63711 27C2.2835 27 1.33596 26.8258 0.794515 26.4774C0.264838 26.129 0 25.617 0 24.9413C0 23.9806 0.323691 22.9672 0.971074 21.9009C1.63023 20.8346 2.57188 19.8422 3.79602 18.9238C5.02016 17.9947 6.49737 17.2399 8.22765 16.6592C9.9697 16.068 11.9236 15.7724 14.0894 15.7724C16.2552 15.7724 18.2032 16.068 19.9335 16.6592C21.6638 17.2399 23.141 17.9947 24.3651 18.9238C25.601 19.8422 26.5427 20.8346 27.1901 21.9009C27.8375 22.9672 28.1612 23.9806 28.1612 24.9413C28.1612 25.617 27.8904 26.129 27.349 26.4774C26.8193 26.8258 25.8777 27 24.524 27H3.63711ZM14.1071 13.112C12.8947 13.112 11.7765 12.8164 10.7524 12.2252C9.74017 11.634 8.928 10.8422 8.31593 9.84985C7.70386 8.84692 7.39782 7.72786 7.39782 6.49267C7.38605 5.26803 7.6862 4.17009 8.29827 3.19883C8.92211 2.21701 9.74606 1.44106 10.7701 0.870968C11.7941 0.290323 12.9065 0 14.1071 0C15.3077 0 16.4141 0.285044 17.4264 0.855132C18.4386 1.41466 19.2508 2.18534 19.8629 3.16716C20.4867 4.13842 20.7986 5.23636 20.7986 6.461C20.7986 7.70675 20.4867 8.83109 19.8629 9.83402C19.2508 10.837 18.4386 11.634 17.4264 12.2252C16.4141 12.8164 15.3077 13.112 14.1071 13.112Z" fill="white"/>
</svg>
