<svg width="47" height="27" viewBox="0 0 47 27" fill="none" xmlns="http://www.w3.org/2000/svg">
<path d="M3.63711 27C2.2835 27 1.33596 26.8258 0.794515 26.4774C0.264838 26.129 0 25.617 0 24.9413C0 23.9806 0.323691 22.9672 0.971074 21.9009C1.63023 20.8346 2.57188 19.8422 3.79602 18.9238C5.02016 17.9947 6.49737 17.2399 8.22765 16.6592C9.9697 16.068 11.9236 15.7724 14.0894 15.7724C16.2552 15.7724 18.2032 16.068 19.9335 16.6592C21.6638 17.2399 23.141 17.9947 24.3651 18.9238C25.6011 19.8422 26.5427 20.8346 27.1901 21.9009C27.8375 22.9672 28.1612 23.9806 28.1612 24.9413C28.1612 25.617 27.8904 26.129 27.349 26.4774C26.8193 26.8258 25.8777 27 24.524 27H3.63711ZM14.1071 13.112C12.8947 13.112 11.7765 12.8164 10.7524 12.2252C9.74017 11.634 8.928 10.8422 8.31593 9.84985C7.70386 8.84692 7.39782 7.72786 7.39782 6.49267C7.38605 5.26803 7.6862 4.17009 8.29827 3.19883C8.92211 2.21701 9.74606 1.44106 10.7701 0.870968C11.7941 0.290323 12.9065 0 14.1071 0C15.3077 0 16.4141 0.285044 17.4264 0.855132C18.4386 1.41466 19.2508 2.18534 19.8629 3.16716C20.4867 4.13842 20.7986 5.23636 20.7986 6.461C20.7986 7.70674 20.4867 8.83109 19.8629 9.83402C19.2508 10.8369 18.4386 11.634 17.4264 12.2252C16.4141 12.8164 15.3077 13.112 14.1071 13.112ZM32.9106 15.7724C35.0764 15.7724 37.0244 16.068 38.7547 16.6592C40.4967 17.2399 41.9798 17.9947 43.204 18.9238C44.4281 19.8422 45.3639 20.8346 46.0113 21.9009C46.6704 22.9672 47 23.9806 47 24.9413C47 25.617 46.7293 26.129 46.1878 26.4774C45.6581 26.8258 44.7165 27 43.3629 27H29.7855C30.1857 26.4299 30.3858 25.7437 30.3858 24.9413C30.3858 23.4845 29.9444 22.0909 29.0616 20.7607C28.1906 19.4305 27.0312 18.2587 25.5834 17.2452C26.5957 16.7912 27.7198 16.4323 28.9557 16.1683C30.1916 15.9044 31.5099 15.7724 32.9106 15.7724ZM32.9106 13.112C31.71 13.112 30.6036 12.8164 29.5913 12.2252C28.579 11.634 27.761 10.8422 27.1371 9.84985C26.525 8.84692 26.219 7.72786 26.219 6.49267C26.219 5.26803 26.525 4.17009 27.1371 3.19883C27.761 2.21701 28.579 1.44106 29.5913 0.870968C30.6036 0.290323 31.71 0 32.9106 0C34.1112 0 35.2235 0.285044 36.2476 0.855132C37.2716 1.41466 38.0897 2.18534 38.7017 3.16716C39.3256 4.13842 39.6375 5.23636 39.6375 6.461C39.6375 7.70674 39.3256 8.83109 38.7017 9.83402C38.0897 10.8369 37.2716 11.634 36.2476 12.2252C35.2353 12.8164 34.123 13.112 32.9106 13.112Z" fill="white"/>
</svg>
