<svg width="66" height="27" viewBox="0 0 66 27" fill="none" xmlns="http://www.w3.org/2000/svg">
<path d="M3.64797 27C2.29031 27 1.33995 26.8258 0.796888 26.4774C0.265629 26.129 0 25.617 0 24.9413C0 23.9806 0.324658 22.9672 0.973974 21.9009C1.6351 20.8346 2.57955 19.8422 3.80735 18.9238C5.03515 17.9947 6.51677 17.2399 8.25221 16.6592C9.99946 16.068 11.9592 15.7724 14.1315 15.7724C16.3037 15.7724 18.2576 16.068 19.993 16.6592C21.7285 17.2399 23.2101 17.9947 24.4379 18.9238C25.6775 19.8422 26.6219 20.8346 27.2713 21.9009C27.9206 22.9672 28.2452 23.9806 28.2452 24.9413C28.2452 25.617 27.9737 26.129 27.4306 26.4774C26.8994 26.8258 25.9549 27 24.5973 27H3.64797ZM14.1492 13.112C12.9332 13.112 11.8116 12.8164 10.7845 12.2252C9.76925 11.634 8.95465 10.8422 8.34076 9.84985C7.72686 8.84692 7.41991 7.72786 7.41991 6.49267C7.4081 5.26804 7.70915 4.17009 8.32305 3.19883C8.94875 2.21701 9.77515 1.44106 10.8023 0.870968C11.8294 0.290323 12.945 0 14.1492 0C15.3534 0 16.4631 0.285044 17.4784 0.855132C18.4937 1.41466 19.3083 2.18534 19.9222 3.16716C20.5479 4.13842 20.8607 5.23636 20.8607 6.461C20.8607 7.70675 20.5479 8.83109 19.9222 9.83402C19.3083 10.837 18.4937 11.634 17.4784 12.2252C16.4631 12.8164 15.3534 13.112 14.1492 13.112ZM33.0089 15.7724C35.1811 15.7724 37.135 16.068 38.8704 16.6592C40.6177 17.2399 42.1052 17.9947 43.333 18.9238C44.5608 19.8422 45.4993 20.8346 46.1486 21.9009C46.8098 22.9672 47.1403 23.9806 47.1403 24.9413C47.1403 25.617 46.8688 26.129 46.3257 26.4774C45.7945 26.8258 44.85 27 43.4924 27H29.8744C30.2758 26.4299 30.4765 25.7437 30.4765 24.9413C30.4765 23.4845 30.0338 22.0909 29.1484 20.7607C28.2748 19.4305 27.1119 18.2587 25.6598 17.2452C26.6751 16.7912 27.8025 16.4323 29.0421 16.1683C30.2817 15.9044 31.604 15.7724 33.0089 15.7724ZM33.0089 13.112C31.8047 13.112 30.6949 12.8164 29.6796 12.2252C28.6643 11.634 27.8438 10.8422 27.2181 9.84985C26.6042 8.84692 26.2973 7.72786 26.2973 6.49267C26.2973 5.26804 26.6042 4.17009 27.2181 3.19883C27.8438 2.21701 28.6643 1.44106 29.6796 0.870968C30.6949 0.290323 31.8047 0 33.0089 0C34.213 0 35.3287 0.285044 36.3558 0.855132C37.3829 1.41466 38.2034 2.18534 38.8173 3.16716C39.443 4.13842 39.7558 5.23636 39.7558 6.461C39.7558 7.70675 39.443 8.83109 38.8173 9.83402C38.2034 10.837 37.3829 11.634 36.3558 12.2252C35.3405 12.8164 34.2248 13.112 33.0089 13.112ZM51.8862 15.7724C54.0585 15.7724 56.0123 16.068 57.7478 16.6592C59.4832 17.2399 60.9649 17.9947 62.1926 18.9238C63.4323 19.8422 64.3767 20.8346 65.026 21.9009C65.6753 22.9672 66 23.9806 66 24.9413C66 25.617 65.7285 26.129 65.1854 26.4774C64.6541 26.8258 63.7097 27 62.352 27H48.7695C49.1591 26.4299 49.3539 25.7437 49.3539 24.9413C49.3539 23.4845 48.9171 22.0909 48.0435 20.7607C47.1698 19.4305 45.9952 18.2587 44.5195 17.2452C45.5466 16.7912 46.674 16.4323 47.9018 16.1683C49.1414 15.9044 50.4695 15.7724 51.8862 15.7724ZM51.8862 13.112C50.682 13.112 49.5664 12.8164 48.5393 12.2252C47.524 11.634 46.7035 10.8422 46.0778 9.84985C45.4639 8.84692 45.157 7.72786 45.157 6.49267C45.157 5.26804 45.4639 4.17009 46.0778 3.19883C46.7035 2.21701 47.524 1.44106 48.5393 0.870968C49.5664 0.290323 50.682 0 51.8862 0C53.0904 0 54.2002 0.285044 55.2155 0.855132C56.2426 1.41466 57.0631 2.18534 57.677 3.16716C58.3027 4.13842 58.6155 5.23636 58.6155 6.461C58.6155 7.70675 58.3027 8.83109 57.677 9.83402C57.0631 10.837 56.2485 11.634 55.2332 12.2252C54.2179 12.8164 53.1022 13.112 51.8862 13.112Z" fill="white"/>
</svg>
